<svg xmlns="http://www.w3.org/2000/svg" width="482.733" height="48.57" viewBox="0 0 335.21 33.727" style="background:0 0" class="looka-1j8o68f"><g id="SvgjsG3080" fill="#049ad1" featurekey="nameLeftFeature-0"><path d="M14.88 40.6 c-3.88 0 -7.04 -0.84 -9.52 -2.56 s-3.72 -4.04 -3.72 -7.04 l0 -0.36 l-0.04 -1.6 l7.84 0 l0 1.8 c0 0.68 0.48 1.32 1.4 1.92 s2.2 0.92 3.88 0.92 c1.4 0 2.4 -0.2 3.04 -0.56 c0.6 -0.36 0.92 -0.84 0.92 -1.36 c0 -0.64 -0.4 -1.2 -1.16 -1.68 c-0.8 -0.48 -2.2 -1.04 -4.16 -1.72 c-1.24 -0.44 -2.28 -0.8 -3.12 -1.12 s-1.84 -0.8 -3 -1.44 c-1.16 -0.6 -2.12 -1.28 -2.8 -1.96 s-1.28 -1.52 -1.8 -2.56 s-0.76 -2.16 -0.76 -3.4 c0 -2.92 1.12 -5.28 3.4 -7.04 s5.2 -2.64 8.8 -2.64 c3.72 0 6.76 0.92 9.16 2.76 s3.6 4.28 3.6 7.32 l0 1.96 l-7.8 0 l0 -1.8 c0 -0.84 -0.4 -1.64 -1.24 -2.32 s-2.04 -1 -3.56 -1 c-1.24 0 -2.2 0.2 -2.84 0.6 c-0.64 0.44 -0.96 0.92 -0.96 1.52 s0.36 1.08 1.08 1.48 c0.72 0.44 2.08 1 4.08 1.68 l2.04 0.72 l2.16 0.88 c0.92 0.44 1.68 0.8 2.24 1.16 s1.2 0.84 1.96 1.44 s1.32 1.24 1.76 1.84 c0.4 0.6 0.76 1.36 1.08 2.2 c0.28 0.84 0.44 1.76 0.44 2.68 c0 2.96 -1.16 5.24 -3.44 6.84 c-2.28 1.64 -5.28 2.44 -8.96 2.44 z M42.066 40 l0 -23.44 l-9.72 0 l0 -7.76 l27.44 0 l0 7.76 l-9.72 0 l0 23.44 l-8 0 z M64.85199999999999 40 l0 -31.2 l23.96 0 l0 7.76 l-15.96 0 l0 4.48 l11.24 0 l0 7.24 l-11.24 0 l0 4 l15.96 0 l0 7.72 l-23.96 0 z M106.478 40 l-12.6 -31.2 l8.72 0 l7.84 20.96 l7.88 -20.96 l8.72 0 l-12.64 31.2 l-7.92 0 z M132.10399999999998 40 l0 -31.2 l23.96 0 l0 7.76 l-15.96 0 l0 4.48 l11.24 0 l0 7.24 l-11.24 0 l0 4 l15.96 0 l0 7.72 l-23.96 0 z" transform="matrix(1.0409576058406658,0,0,1.0409576058406658,-1.6655318218879787,-8.535841249266689)"/></g><g id="SvgjsG3081" fill="#000" featurekey="nameRightFeature-0"><path d="M14.794 40 c-0.32 0 -0.52 -0.24 -0.52 -0.52 l0 -23.96 c0 -0.28 0.2 -0.52 0.52 -0.52 l9.08 0 c2.4 0 4.6 0.52 6.52 1.6 c1.92 1.04 3.4 2.52 4.48 4.44 c1.04 1.88 1.6 4.04 1.6 6.44 c0 2.44 -0.56 4.6 -1.64 6.48 c-1.08 1.92 -2.6 3.4 -4.56 4.44 c-1.92 1.08 -4.16 1.6 -6.6 1.6 l-8.88 0 z M20.474 34.4 l3.52 0 c1.16 0 2.24 -0.28 3.16 -0.84 c0.92 -0.6 1.68 -1.4 2.2 -2.44 s0.8 -2.24 0.8 -3.6 c0 -1.32 -0.28 -2.56 -0.84 -3.6 c-0.56 -1.08 -1.32 -1.88 -2.28 -2.48 c-0.96 -0.56 -2.08 -0.88 -3.28 -0.88 l-3.28 0 l0 13.84 z M54.828 40 c-2.4 0 -4.6 -0.56 -6.52 -1.68 c-1.96 -1.12 -3.52 -2.72 -4.68 -4.64 c-1.12 -1.96 -1.68 -4.2 -1.68 -6.6 c0 -2.36 0.56 -4.56 1.68 -6.52 c1.16 -1.96 2.68 -3.52 4.64 -4.64 s4.16 -1.68 6.56 -1.68 c2.36 0 4.56 0.56 6.52 1.68 s3.52 2.68 4.64 4.64 c1.16 1.96 1.72 4.16 1.72 6.52 c0 2.4 -0.56 4.6 -1.72 6.56 c-1.12 1.96 -2.68 3.52 -4.64 4.68 c-1.96 1.12 -4.16 1.68 -6.52 1.68 z M54.908 34.24 c1.16 0 2.24 -0.32 3.2 -0.92 c1 -0.64 1.8 -1.48 2.36 -2.6 c0.6 -1.08 0.88 -2.32 0.88 -3.64 c0 -1.28 -0.28 -2.52 -0.88 -3.6 c-0.56 -1.08 -1.36 -1.92 -2.36 -2.56 c-0.96 -0.6 -2.04 -0.92 -3.2 -0.92 c-1.2 0 -2.28 0.32 -3.28 0.92 c-1.04 0.64 -1.84 1.48 -2.44 2.56 c-0.6 1.12 -0.88 2.32 -0.88 3.6 c0 1.32 0.28 2.56 0.88 3.64 c0.64 1.08 1.44 1.96 2.44 2.56 c1 0.64 2.08 0.96 3.28 0.96 z M79.462 40 c-0.24 0 -0.44 -0.16 -0.48 -0.36 l-7.76 -23.96 c-0.08 -0.16 -0.04 -0.32 0.08 -0.48 c0.08 -0.12 0.24 -0.2 0.4 -0.2 l5.6 0 c0.2 0 0.44 0.16 0.48 0.36 l4.16 14.44 l3.8 -13.72 c0.04 -0.24 0.24 -0.4 0.48 -0.4 l5.08 0 c0.24 0 0.44 0.16 0.52 0.4 l3.84 13.72 l4.08 -14.44 c0.08 -0.2 0.28 -0.36 0.52 -0.36 l5.36 0 c0.16 0 0.32 0.08 0.4 0.2 c0.12 0.16 0.12 0.32 0.08 0.48 l-7.8 23.96 c-0.08 0.2 -0.24 0.36 -0.48 0.36 l-4.68 0 c-0.24 0 -0.44 -0.16 -0.48 -0.36 l-4 -14.2 l-4.08 14.2 c-0.04 0.2 -0.24 0.36 -0.48 0.36 l-4.64 0 z M111.736 40 c-0.28 0 -0.52 -0.24 -0.52 -0.52 l0 -23.96 c0 -0.28 0.24 -0.52 0.52 -0.52 l4.72 0 c0.16 0 0.32 0.08 0.44 0.2 l9.2 14.2 l0 -13.88 c0 -0.28 0.24 -0.52 0.52 -0.52 l4.92 0 c0.28 0 0.52 0.24 0.52 0.52 l0 23.96 c0 0.28 -0.24 0.52 -0.52 0.52 l-4.72 0 c-0.16 0 -0.32 -0.08 -0.44 -0.2 l-9.16 -14.12 l0 13.8 c0 0.28 -0.24 0.52 -0.52 0.52 l-4.96 0 z" transform="matrix(1.3092793346202964,0,0,1.3092793346202964,162.3113465578717,-18.644137425322764)"/></g></svg>