<svg viewBox="0 0 32 32" class="" xmlns="http://www.w3.org/2000/svg"><path fill="#fcdc00" d="M29.69,17.02c0,3.18-1.11,6.1-2.97,8.4-.27-.27-1.11-.95-2.39-.59.04-1.18-1.3-3.45-3.51-2.53-2.21.92-2.54,1.01-2.54,1.01,0,0-.45-.64-1.67-.02-.39-.75-1.34-2.62-2.99-2.41-1.65.21-3.62.31-3.62.31l-.27,1.08s-3.16.71-4.49,2.1c-.02.02-.02.04-.02.06-1.42-2.12-2.24-4.67-2.24-7.41,0-7.37,5.98-13.35,13.35-13.35s13.35,5.98,13.35,13.35Z"></path><g id="GOAT_FRONT"><path fill="#231f20" d="M15.39,16.06s0,.01-.01.03c.19.31-.07.52-.07.52l-.19.05c.17-.38-.08-.38-.08-.38-.01,0-.03,0-.05,0-.33.44-.62.34-.62.34,0,0,0,.33.02.65,0,.04.37.45.4,1.06.08.91-.31,1.46-.49,1.81-.17.35-1.24,2.3-1.36,3.02-.13.72.16,1.64.16,1.64,0,0-.11.08-.6.05-.02-.63.02-1.15.07-1.45.05-.3.05-1.54-.17-1.85-1.08.52-1.42.36-1.98.52-.56.17-1.36.8-2.25,1.98-.89,1.18-.83,1.63-.83,1.63l-.06.29s-.08.01-.29-.05c.07-.5.26-1.29.63-2.07.37-.78.34-1.56.38-2.57-.78-.4-.83-.95-.83-.95,0,0,.22.31.61.29.39-.02,1.2-.31,2.65-.8,1.45-.49,2.03-1.27,2.48-2.33.45-1.07.39-2.18.34-2.28-.05-.1-.72-.03-.96.03.28-.35,1.12-.22,1.12-.22,0,0,.03-.01,0-.12-.03-.11-.7-.1-.86-.13.51-.19,1.1.02,1.15.05.05.03.49-.05.55,0,.06.05.33.3.77.39.44.09.5-.02.61.38.11.39-.19.41-.23.47Z"></path><path fill="#231f20" d="M14.67,19.94s-.61.99-.57,1,.24.17.9.25.68.15.65.21-1.07,1.02-1.37,1.17l-.02.41s1.12-.66,1.82-1.46c.23-.29.22-.43.08-.55s-1.49-1.02-1.49-1.02Z"></path><path fill="#231f20" d="M10.4,22.53s.17-.16.09-.21-.26-.05-.26-.05l-1.25,1.07s-.04.86,0,.96.3.15.48.28c.14.18.06.23.02.37s-.09.24-.09.24l.4-.21.3-.32.07-.08-.65-.48s-.11-.05.06-.29.82-1.26.82-1.26Z"></path></g><g id="Goat_Back"><path fill="#231f20" d="M12.2,16.37c-.22.3-.63.36-.71.38-.08.02-.41.24-.45.27-.04.03-.14.38.06.79.2.42.33,1.05.33,1.33,0,.06-.01.13-.04.2-.27.17-.6.32-.98.45l-.25.09c-1.26.43-2.02.69-2.38.71-.01,0-.03,0-.04,0-.34,0-.53-.27-.53-.27l-.1-.14v.17s.07.57.84.97c0,.11,0,.23-.01.33,0,.33-.02.63-.05.91-.17.14-.31.27-.38.34-.26.27-.77,1.39-.77,1.49,0,.04.22.2.47.37-.03.1-.06.2-.09.3-.38-.15-.8-.33-.85-.39-.07-.1.02-.16.07-.36.05-.2,0-.45,0-.45,0,0-.1-.16-.14.02-.03.18,0,.38,0,.38l-.1.03v-.25l-.18.07-.05.26h-.09s-.02-.26-.07-.32c-.05-.06,0-.25,0-.25h-.17s.04.11,0,.25c-.04.14-.78,1.35-.9,1.6-.11.25-.02,1.63-.02,1.63h-.75s.2-.13.18-.79c.04-1.31.13-1.66.43-2.18s.5-1.96.52-2.83c-.84-.42-.79-.89-.79-.89.3.2.54.25.95.15.39-.22,2.69-.71,3.47-1.39.77-.68,1.43-2.75,1.4-2.93-.03-.19-.04-.7-.04-.7,0,0-.45-.06-.54-.06s-.23.18-.24.13c0-.05.16-.23.28-.26.13-.03.63.04.63.04,0,0-.01-.04-.04-.15-.03-.1-.29-.1-.69-.15.5-.18.89.03.89.03,0,0,.49-.09.69.07.3.31,1.1.43,1.2.47.1.04.19.31.04.54Z"></path><path fill="#231f20" d="M10.28,24.77s-.13-.31-.13-.38.69-.87.77-1 .14-.2.16-.34,0-.96,0-.96l-.62.05s-.07.42-.04.52.23.23.2.41-.55,1.05-.83,1.4c.16.39.2.46.2.46l.28-.16Z"></path><path fill="#231f20" d="M7.98,25.24l.09.11-.32.18s.11-.19-.07-.26c-.03-.01-.09-.03-.16-.06.03-.06.06-.13.09-.2.21.13.37.23.37.23Z"></path></g><path fill="#231f20" d="M16.63,20.14s-.29-.33-.31-.54c-.02-.14.1-.36.25-.62.05-.09.1-.17.11-.21.01-.04.02-.06.02-.07-.04,0-.18.03-.69.4-.84.6-1.11.46-1.13.44l.07-.1h0s.24.11,1-.44c.62-.44.77-.45.84-.4.07.06.03.17.02.21-.02.05-.06.13-.12.23-.1.17-.25.44-.24.55.02.14.21.39.28.47l-.09.08Z"></path><path fill="#231f20" d="M15.83,19.08c-.05,0-.1-.01-.15-.03-.24-.1-.44-.45-.69-1.21-.26-.78-.86-.81-.89-.81v-.12s.72.03,1.01.9c.16.5.37,1.02.62,1.13.08.03.15.03.24-.01.09-.04.18-.1.27-.15.21-.13.4-.24.52-.16.09.06.11.2.07.47l-.12-.02c.05-.28,0-.33-.01-.34-.06-.04-.25.08-.38.17-.09.06-.19.12-.28.16-.07.03-.13.05-.19.05Z"></path><path fill="#231f20" d="M12.85,18.76s-.03-.01-.05-.04h0s0,0,0,0c-.01-.02-.03-.04-.05-.07-.05-.06-.12-.18-.26-.37-.39-.55-1.6-.71-1.61-.71v-.12c.07,0,1.29.16,1.71.76.21.3.28.4.3.43h0s.05.07,0,.1c-.01,0-.03.01-.04.01Z"></path><path fill="#231f20" d="M17.49,24.81s0,.24-.14.31-.42.18-.42.18c0,0,.34.51.56.6l.22.09v-.71s0-.27-.22-.45Z"></path><path fill="#231f20" d="M19.03,25.68s-.09.28-.17.34-.06.1-.06.1c0,0,.87.42.99.27s.09-.93.03-.95-.2.26-.29.29-.5-.06-.5-.06Z"></path><g id="Lady"><path fill="#231f20" d="M19.05,9.61s.21.2.21.33.02.41-.12.43c0,0,.03.15.08.2s.5.01.58,0,.3-.12.39-.25.19-.27.31-.3.28-.02.37-.06.19-.09.18-.18,0-.5-.02-.61.01-.17.06-.16.09-.11-.08-.2-.2-.21-.26-.43-.15-.49-.3-.6c-.09.15-.47,1.33-1.4,1.83Z"></path><path fill="#231f20" d="M20.27,7.34c-.19-.06-.19-.41-.26-.51-.07-.1-.23-.12-.37,0-.14.12-.29.65-.47.83-.18.18-.34.04-.34-.13s.18-.18.18-.18c-.16.21-.13.21-.05.26s.16-.07.23-.2c.07-.13.44-.68.4-.79s-.17-.21-.32-.08c-.16.13-.7.3-1,.32-.3.02-.56.23-.65.45-.09.22-.03.67,0,1.12.36.3.17.3.38.54.2.24.39.23.63.3.23.07.13.31.38.29.45-.05,1.11-1.4,1.2-1.6.08-.19.12-.24.23-.38.11-.14.04-.18-.16-.24ZM18.79,9.17l-.03-.06c.17-.08.47-.55.63-.85l-.32.35-.04-.04.66-.71-.11.21s-.53.98-.79,1.1ZM19.84,8.28c-.24.6-.72.88-.74.89l-.03-.05s.48-.28.71-.86c.23-.6.32-.7.32-.7l.04.04s-.09.1-.31.68Z"></path><path fill="#231f20" d="M20.65,10.26s-.17-.01-.33.11-.28.39-.66.4-.61-.2-.66-.25-.98.32-1.13.39c.15.2.48.95.39 1.65-.02.16.16.53.16.53,0,0,.06.2.12.39s.03.52-.13,1.08-.32,1.16-.51,1.41-.29.52-.35.78-.09.71,0,1.12.43,1.02.5,1.27.13.32.15.51.05.7.05.86-.38.84-.57,1.33-.59,1.64-.62,2.13l-.02.17s.55-.08.65-.03.27.19.38.35.75.34,1.97-.05,1.45-.19,1.45-.19c0,0,.29-.89.22-1.81s-.13-1.46-.52-2.02c-.17-.3-.38-.96-.38-1.22s-.06-.18.05-.66.24-.65.31-1.09.18-1.39.18-1.73.01-1.25,0-1.43-.18-.72.03-1.14.24-.65.19-.97-.37-.82-.57-1.11-.32-.31-.36-.78Z"></path><path fill="#231f20" d="M21.45,13.38s.1,1.05.07,1.16.02.15.12.18.84.55.92.82.07.33.05.46-.03.55.07.79.1.3.1.3c0,0,.06.04.07,0s.03-.07-.04-.23-.02-.43.05-.48.22-.07.23.03.03.23-.05.34-.06.2-.05.28.07.23.07.23c0,0,.07.04.09-.05s0-.17,0-.17c0,0,.07-.06.08-.01s.03.23-.03.3.04.09.04.09c0,0,.13-.06.16-.26s.06-.02.06-.02c0,0,.04.18,0,.25s-.04.12.02.11.14-.05.09-.33-.05-.61-.22-.95-.52-1.04-1.05-1.67-.88-1.17-.88-1.17Z"></path><path fill="#231f20" d="M17.73,11.03s.34.45.39.79.09.64.03.74-.11.19-.28.39-.57.93-.67,1.25-.15.88-.2,1.2-.21,1.28-.19,1.57.16.37.19.53.09.16.08.32,0,.74,0,.78-.11.1-.11.03.02-.23-.02-.35-.04-.32-.14-.33-.21-.01-.22.08-.06.17-.02.34.11.44.23.53.04.3.04.3c0,0-.11.07-.16-.05s-.18-.22-.24-.45-.11-.39-.1-.75.07-.52.1-.67-.06-.97-.04-1.55.13-1.51.28-1.97.46-.95.59-1.3.27-.52.31-.79.16-.63.16-.63Z"></path><path fill="#231f20" d="M17.96,24.64s.39.2,1.2.18c-.37.94-.48.96-.5,1.41s-.13.73-.02.77.6.42.72.61.47.45.47.45c0,0-.13.28-.38.27s-.48-.05-.73-.29-.55,0-.66-.02-.55.06-.45-.24.31-.32.33-.56-.12-2.33.02-2.59Z"></path><path fill="#231f20" d="M19.96,24.64s.65-.03.97-.22c-.08.52-.33,1.42-.18,1.86s.43,1.33.81,1.73c-.02.22-.16.28-.43.12s-.35-.07-.54-.52-.72-.71-.77-.81.07-.21.24-.37-.1-1.78-.1-1.78Z"></path></g><path fill="#231f20" d="M25.51,27.85s-.96-1.09-1.59-1.27-.88-.25-.88-.25l-.81-1.39-.67.93s-.42.04-.54.25.5,1.4.54,1.52.08.21.08.21h3.86Z"></path><path fill="#231f20" d="M17.32,27.88H5.19v-.2h-2.88l1.6-1.19s.69.34.81.5,1.19-.05,1.19-.05l1.6-1.49s.22-.27.57-.27.81.2,1.04,0,.42-.47.42-.47c0,0,.62-.3.91-.16s1.43.37,1.92.08,1.13-.29,1.32-.12.92.29.92.29c0,0,.55.31,1.27.48s.53.73.91.85.93.25.93.25v.78s-.32.11-.39.7Z"></path></svg>